<mxfile host="app.diagrams.net" modified="2020-11-30T13:48:00.759Z" agent="5.0 (Windows NT 10.0; Win64; x64) AppleWebKit/537.36 (KHTML, like Gecko) Chrome/86.0.4240.198 Safari/537.36" etag="mLk28RWDkokVOI7KIs0f" version="13.10.4" type="github">
  <diagram id="wFgetxw_JZM_RU-oxdfV" name="Page-1">
    <mxGraphModel dx="1564" dy="938" grid="1" gridSize="10" guides="1" tooltips="1" connect="1" arrows="1" fold="1" page="1" pageScale="1" pageWidth="827" pageHeight="1169" math="0" shadow="0">
      <root>
        <mxCell id="0" />
        <mxCell id="1" parent="0" />
        <mxCell id="uHxdD3G6QML8ynv2IFrb-1" value="Actor" style="shape=umlActor;verticalLabelPosition=bottom;verticalAlign=top;html=1;outlineConnect=0;" vertex="1" parent="1">
          <mxGeometry x="50" y="170" width="100" height="190" as="geometry" />
        </mxCell>
        <mxCell id="uHxdD3G6QML8ynv2IFrb-4" value="Actor" style="shape=umlActor;verticalLabelPosition=bottom;verticalAlign=top;html=1;outlineConnect=0;" vertex="1" parent="1">
          <mxGeometry x="50" y="600" width="90" height="180" as="geometry" />
        </mxCell>
        <mxCell id="uHxdD3G6QML8ynv2IFrb-7" value="&lt;font style=&quot;font-size: 25px&quot;&gt;점장&lt;/font&gt;" style="text;html=1;strokeColor=none;fillColor=none;align=center;verticalAlign=middle;whiteSpace=wrap;rounded=0;" vertex="1" parent="1">
          <mxGeometry x="45" y="110" width="110" height="40" as="geometry" />
        </mxCell>
        <mxCell id="uHxdD3G6QML8ynv2IFrb-9" value="&lt;font style=&quot;font-size: 31px&quot;&gt;경영관리&lt;/font&gt;" style="ellipse;whiteSpace=wrap;html=1;" vertex="1" parent="1">
          <mxGeometry x="241" y="160" width="210" height="120" as="geometry" />
        </mxCell>
        <mxCell id="uHxdD3G6QML8ynv2IFrb-10" value="&lt;font style=&quot;font-size: 32px&quot;&gt;물품주문&lt;/font&gt;" style="ellipse;whiteSpace=wrap;html=1;" vertex="1" parent="1">
          <mxGeometry x="240" y="310" width="220" height="120" as="geometry" />
        </mxCell>
        <mxCell id="uHxdD3G6QML8ynv2IFrb-11" value="&lt;font style=&quot;font-size: 34px&quot;&gt;물건판매&lt;/font&gt;" style="ellipse;whiteSpace=wrap;html=1;" vertex="1" parent="1">
          <mxGeometry x="240" y="610" width="220" height="110" as="geometry" />
        </mxCell>
        <mxCell id="uHxdD3G6QML8ynv2IFrb-12" value="&lt;font style=&quot;font-size: 35px&quot;&gt;재고확인&lt;/font&gt;" style="ellipse;whiteSpace=wrap;html=1;" vertex="1" parent="1">
          <mxGeometry x="240" y="460" width="210" height="110" as="geometry" />
        </mxCell>
        <mxCell id="uHxdD3G6QML8ynv2IFrb-13" style="edgeStyle=orthogonalEdgeStyle;rounded=0;orthogonalLoop=1;jettySize=auto;html=1;exitX=0.5;exitY=1;exitDx=0;exitDy=0;" edge="1" parent="1" source="uHxdD3G6QML8ynv2IFrb-11" target="uHxdD3G6QML8ynv2IFrb-11">
          <mxGeometry relative="1" as="geometry" />
        </mxCell>
        <mxCell id="uHxdD3G6QML8ynv2IFrb-14" style="edgeStyle=orthogonalEdgeStyle;rounded=0;orthogonalLoop=1;jettySize=auto;html=1;exitX=0.5;exitY=1;exitDx=0;exitDy=0;" edge="1" parent="1">
          <mxGeometry relative="1" as="geometry">
            <mxPoint x="100" y="1010" as="sourcePoint" />
            <mxPoint x="100" y="1010" as="targetPoint" />
          </mxGeometry>
        </mxCell>
        <mxCell id="uHxdD3G6QML8ynv2IFrb-15" value="&lt;font style=&quot;font-size: 35px&quot;&gt;매출관리&lt;/font&gt;" style="ellipse;whiteSpace=wrap;html=1;" vertex="1" parent="1">
          <mxGeometry x="240" y="750" width="220" height="120" as="geometry" />
        </mxCell>
        <mxCell id="uHxdD3G6QML8ynv2IFrb-16" value="&lt;font style=&quot;font-size: 40px&quot;&gt;폐기&lt;/font&gt;" style="ellipse;whiteSpace=wrap;html=1;" vertex="1" parent="1">
          <mxGeometry x="240" y="900" width="220" height="110" as="geometry" />
        </mxCell>
        <mxCell id="uHxdD3G6QML8ynv2IFrb-26" value="" style="endArrow=classic;html=1;entryX=-0.006;entryY=0.649;entryDx=0;entryDy=0;entryPerimeter=0;" edge="1" parent="1" target="uHxdD3G6QML8ynv2IFrb-9">
          <mxGeometry width="50" height="50" relative="1" as="geometry">
            <mxPoint x="100" y="265" as="sourcePoint" />
            <mxPoint x="150" y="215" as="targetPoint" />
          </mxGeometry>
        </mxCell>
        <mxCell id="uHxdD3G6QML8ynv2IFrb-27" value="" style="endArrow=classic;html=1;entryX=0;entryY=0.5;entryDx=0;entryDy=0;" edge="1" parent="1" target="uHxdD3G6QML8ynv2IFrb-10">
          <mxGeometry width="50" height="50" relative="1" as="geometry">
            <mxPoint x="100" y="270" as="sourcePoint" />
            <mxPoint x="150" y="220" as="targetPoint" />
          </mxGeometry>
        </mxCell>
        <mxCell id="uHxdD3G6QML8ynv2IFrb-28" value="" style="endArrow=classic;html=1;entryX=0;entryY=0;entryDx=0;entryDy=0;" edge="1" parent="1" target="uHxdD3G6QML8ynv2IFrb-12">
          <mxGeometry width="50" height="50" relative="1" as="geometry">
            <mxPoint x="100" y="280" as="sourcePoint" />
            <mxPoint x="150" y="230" as="targetPoint" />
          </mxGeometry>
        </mxCell>
        <mxCell id="uHxdD3G6QML8ynv2IFrb-29" value="&lt;font style=&quot;font-size: 25px&quot;&gt;직원&lt;/font&gt;" style="text;html=1;strokeColor=none;fillColor=none;align=center;verticalAlign=middle;whiteSpace=wrap;rounded=0;" vertex="1" parent="1">
          <mxGeometry x="20" y="520" width="160" height="70" as="geometry" />
        </mxCell>
        <mxCell id="uHxdD3G6QML8ynv2IFrb-30" value="" style="endArrow=classic;html=1;entryX=0;entryY=0.5;entryDx=0;entryDy=0;" edge="1" parent="1" target="uHxdD3G6QML8ynv2IFrb-10">
          <mxGeometry width="50" height="50" relative="1" as="geometry">
            <mxPoint x="100" y="660" as="sourcePoint" />
            <mxPoint x="150" y="610" as="targetPoint" />
          </mxGeometry>
        </mxCell>
        <mxCell id="uHxdD3G6QML8ynv2IFrb-31" value="" style="endArrow=classic;html=1;entryX=0.011;entryY=0.758;entryDx=0;entryDy=0;entryPerimeter=0;" edge="1" parent="1" target="uHxdD3G6QML8ynv2IFrb-12">
          <mxGeometry width="50" height="50" relative="1" as="geometry">
            <mxPoint x="100" y="660" as="sourcePoint" />
            <mxPoint x="150" y="610" as="targetPoint" />
          </mxGeometry>
        </mxCell>
        <mxCell id="uHxdD3G6QML8ynv2IFrb-32" value="" style="endArrow=classic;html=1;entryX=0;entryY=0.5;entryDx=0;entryDy=0;" edge="1" parent="1" target="uHxdD3G6QML8ynv2IFrb-11">
          <mxGeometry width="50" height="50" relative="1" as="geometry">
            <mxPoint x="90" y="680" as="sourcePoint" />
            <mxPoint x="140" y="630" as="targetPoint" />
          </mxGeometry>
        </mxCell>
        <mxCell id="uHxdD3G6QML8ynv2IFrb-34" value="" style="endArrow=classic;html=1;entryX=-0.033;entryY=0.333;entryDx=0;entryDy=0;entryPerimeter=0;" edge="1" parent="1" target="uHxdD3G6QML8ynv2IFrb-15">
          <mxGeometry width="50" height="50" relative="1" as="geometry">
            <mxPoint x="100" y="680" as="sourcePoint" />
            <mxPoint x="150" y="630" as="targetPoint" />
          </mxGeometry>
        </mxCell>
        <mxCell id="uHxdD3G6QML8ynv2IFrb-35" value="" style="endArrow=classic;html=1;entryX=0;entryY=0.25;entryDx=0;entryDy=0;entryPerimeter=0;" edge="1" parent="1" target="uHxdD3G6QML8ynv2IFrb-16">
          <mxGeometry width="50" height="50" relative="1" as="geometry">
            <mxPoint x="90" y="690" as="sourcePoint" />
            <mxPoint x="140" y="640" as="targetPoint" />
          </mxGeometry>
        </mxCell>
      </root>
    </mxGraphModel>
  </diagram>
</mxfile>
